<svg data-v-423bf9ae="" xmlns="http://www.w3.org/2000/svg" viewBox="0 0 353 112" class="iconLeft"><!----><!----><!----><g data-v-423bf9ae="" id="31823fda-45fe-4aa5-b3f5-efa38745a94c" fill="black" transform="matrix(4.294917598649483,0,0,4.294917598649483,124.33783624349576,15.677430322767712)"><path d="M7.53 3.75L10.30 3.75L10.30 13.55L7.53 13.55L7.53 9.73L3.75 9.73L3.75 13.55L0.98 13.55L0.98 3.75L3.75 3.75L3.75 7.43L7.53 7.43L7.53 3.75ZM12.14 13.55L12.14 5.96L14.80 5.96L14.80 13.55L12.14 13.55ZM13.47 5.12L13.47 5.12Q12.74 5.12 12.29 4.72L12.29 4.72L12.29 4.72Q11.84 4.31 11.84 3.71L11.84 3.71L11.84 3.71Q11.84 3.11 12.29 2.70L12.29 2.70L12.29 2.70Q12.74 2.30 13.47 2.30L13.47 2.30L13.47 2.30Q14.20 2.30 14.64 2.68L14.64 2.68L14.64 2.68Q15.09 3.07 15.09 3.67L15.09 3.67L15.09 3.67Q15.09 4.30 14.64 4.71L14.64 4.71L14.64 4.71Q14.20 5.12 13.47 5.12L13.47 5.12ZM20.09 13.75L20.09 13.75Q18.90 13.75 17.78 13.45L17.78 13.45L17.78 13.45Q16.66 13.16 15.96 12.67L15.96 12.67L16.87 10.63L16.87 10.63Q17.53 11.06 18.40 11.33L18.40 11.33L18.40 11.33Q19.26 11.59 20.10 11.59L20.10 11.59L20.10 11.59Q21.70 11.59 21.70 10.79L21.70 10.79L21.70 10.79Q21.70 10.37 21.25 10.17L21.25 10.17L21.25 10.17Q20.79 9.97 19.78 9.74L19.78 9.74L19.78 9.74Q18.68 9.51 17.93 9.23L17.93 9.23L17.93 9.23Q17.19 8.96 16.66 8.36L16.66 8.36L16.66 8.36Q16.13 7.76 16.13 6.73L16.13 6.73L16.13 6.73Q16.13 5.84 16.62 5.12L16.62 5.12L16.62 5.12Q17.11 4.40 18.08 3.98L18.08 3.98L18.08 3.98Q19.05 3.56 20.47 3.56L20.47 3.56L20.47 3.56Q21.43 3.56 22.37 3.77L22.37 3.77L22.37 3.77Q23.31 3.99 24.02 4.41L24.02 4.41L23.17 6.47L23.17 6.47Q21.77 5.71 20.45 5.71L20.45 5.71L20.45 5.71Q19.63 5.71 19.25 5.96L19.25 5.96L19.25 5.96Q18.87 6.20 18.87 6.59L18.87 6.59L18.87 6.59Q18.87 6.99 19.32 7.18L19.32 7.18L19.32 7.18Q19.77 7.38 20.76 7.59L20.76 7.59L20.76 7.59Q21.88 7.83 22.62 8.10L22.62 8.10L22.62 8.10Q23.35 8.37 23.89 8.97L23.89 8.97L23.89 8.97Q24.43 9.56 24.43 10.58L24.43 10.58L24.43 10.58Q24.43 11.47 23.94 12.18L23.94 12.18L23.94 12.18Q23.45 12.89 22.47 13.32L22.47 13.32L22.47 13.32Q21.49 13.75 20.09 13.75L20.09 13.75ZM30.52 5.84L30.52 5.84Q31.93 5.84 32.80 6.68L32.80 6.68L32.80 6.68Q33.66 7.52 33.66 9.21L33.66 9.21L33.66 13.55L31.00 13.55L31.00 9.65L31.00 9.65Q31.00 8.09 29.75 8.09L29.75 8.09L29.75 8.09Q29.06 8.09 28.65 8.54L28.65 8.54L28.65 8.54Q28.24 8.99 28.24 9.88L28.24 9.88L28.24 13.55L25.58 13.55L25.58 3.16L28.24 3.16L28.24 6.66L28.24 6.66Q28.67 6.26 29.26 6.05L29.26 6.05L29.26 6.05Q29.85 5.84 30.52 5.84L30.52 5.84ZM39.13 13.68L39.13 13.68Q37.91 13.68 36.93 13.17L36.93 13.17L36.93 13.17Q35.95 12.67 35.40 11.77L35.40 11.77L35.40 11.77Q34.85 10.88 34.85 9.74L34.85 9.74L34.85 9.74Q34.85 8.62 35.40 7.73L35.40 7.73L35.40 7.73Q35.95 6.83 36.93 6.33L36.93 6.33L36.93 6.33Q37.90 5.84 39.13 5.84L39.13 5.84L39.13 5.84Q40.36 5.84 41.34 6.33L41.34 6.33L41.34 6.33Q42.32 6.83 42.87 7.72L42.87 7.72L42.87 7.72Q43.41 8.61 43.41 9.74L43.41 9.74L43.41 9.74Q43.41 10.88 42.87 11.77L42.87 11.77L42.87 11.77Q42.32 12.67 41.34 13.17L41.34 13.17L41.34 13.17Q40.36 13.68 39.13 13.68L39.13 13.68ZM39.13 11.56L39.13 11.56Q39.83 11.56 40.28 11.08L40.28 11.08L40.28 11.08Q40.73 10.60 40.73 9.74L40.73 9.74L40.73 9.74Q40.73 8.90 40.28 8.43L40.28 8.43L40.28 8.43Q39.83 7.95 39.13 7.95L39.13 7.95L39.13 7.95Q38.43 7.95 37.98 8.43L37.98 8.43L37.98 8.43Q37.53 8.90 37.53 9.74L37.53 9.74L37.53 9.74Q37.53 10.60 37.98 11.08L37.98 11.08L37.98 11.08Q38.43 11.56 39.13 11.56L39.13 11.56ZM49.42 5.84L49.42 5.84Q50.46 5.84 51.30 6.32L51.30 6.32L51.30 6.32Q52.15 6.80 52.65 7.69L52.65 7.69L52.65 7.69Q53.14 8.58 53.14 9.76L53.14 9.76L53.14 9.76Q53.14 10.93 52.65 11.82L52.65 11.82L52.65 11.82Q52.15 12.71 51.30 13.20L51.30 13.20L51.30 13.20Q50.46 13.68 49.42 13.68L49.42 13.68L49.42 13.68Q48.09 13.68 47.31 12.88L47.31 12.88L47.31 16.27L44.65 16.27L44.65 5.96L47.18 5.96L47.18 6.72L47.18 6.72Q47.92 5.84 49.42 5.84L49.42 5.84ZM48.86 11.56L48.86 11.56Q49.56 11.56 50.01 11.08L50.01 11.08L50.01 11.08Q50.46 10.60 50.46 9.76L50.46 9.76L50.46 9.76Q50.46 8.92 50.01 8.43L50.01 8.43L50.01 8.43Q49.56 7.95 48.86 7.95L48.86 7.95L48.86 7.95Q48.16 7.95 47.71 8.43L47.71 8.43L47.71 8.43Q47.26 8.92 47.26 9.76L47.26 9.76L47.26 9.76Q47.26 10.60 47.71 11.08L47.71 11.08L47.71 11.08Q48.16 11.56 48.86 11.56L48.86 11.56Z"></path></g><!----><g data-v-423bf9ae="" id="06b412d0-d384-45a8-a21c-77438e669ad5" transform="matrix(1.1111129760742187,0,0,1.1111129760742187,-0.40164955457184703,0.4442755813138817)" stroke="none" fill="black"><path d="M55.527 18.283a9.187 9.187 0 0 0 10.448-7.738C66.722 5.522 63.26.848 58.223.101c-5.02-.747-9.697 2.724-10.439 7.739-.747 5.026 2.724 9.697 7.743 10.443zM64.818 54.233c.055-.354.118-.702.118-1.068l.191-19.526 6.883 4.714 4.499 12.88c-.1.126-.245.201-.337.335a5.37 5.37 0 0 0-.814 4.052l.141.717-5.11 1.007 5.384 31.907 23.073-4.536-7.838-31.425-4.915.964-.141-.716c-.383-1.96-1.845-3.484-3.662-4.076l-3.175-14.563a3.858 3.858 0 0 0-1.548-2.163L61.849 21.973c-.031-.023-.059-.041-.091-.062l-.296-.203-.019.025c-1.166-.71-2.51-1.15-3.972-1.166-2.223-.057-4.268.922-5.721 2.478l-.014-.012-.159.221c-.314.36-.597.747-.838 1.161l-9.392 12.981L25.1 42.34l.264 1.059c-2.387.556-4.204 2.603-4.204 5.158v.729h-5.215l-1.248 34.271h23.52l-1.252-34.271h-5.01v-.729c0-.48-.155-.913-.273-1.357l12.932-2.6a3.907 3.907 0 0 0 2.209-1.496l2.692-3.726-.128 13.637c-.004.234.041.455.06.684l-7.356 19.336a4.8 4.8 0 0 0-.319 1.597l.474 25.183 7.387.185 1.831-24.278 4.787-12.575 1.745 12.479c.068.46.195.904.382 1.328l11.573 22.324 6.377-2.876-8.8-22.813-2.71-19.356zm19.084.454l-6.208 1.221-.141-.718a3.11 3.11 0 0 1 .428-2.252l4.085-1.144c.843.431 1.499 1.195 1.694 2.178l.142.715zm-54.181-6.129v.729h-6.327v-.729c0-1.515 1.089-2.722 2.505-3.034l.684 2.706 2.951-.597c.091.299.187.597.187.925z"></path><path d="M19.833 46.048l-5.038-3.188L1.154 63.046l11.892 7.42.856-23.304H19.5z"></path></g><!----></svg>